<svg xmlns="http://www.w3.org/2000/svg" width="635.19" height="568.651" viewBox="0 0 635.19 568.651">
  <g id="Group_6494" data-name="Group 6494" transform="translate(-40.741 -164.57)">
    <g id="Background_Complete" data-name="Background Complete" transform="translate(77.295 166.932)">
      <g id="Group_6387" data-name="Group 6387" transform="translate(0 0)">
        <g id="Group_6385" data-name="Group 6385" transform="translate(0 101.194)">
          <path id="Path_10463" data-name="Path 10463" d="M76.924,191.4c0-1.269.168-4.653.168-6.091,0-6.176-2.2-8.968-7.951-9.138-2.708-.168-4.315-1.774-4.315-4.058s1.607-3.893,4.315-4.061c5.752-.253,7.951-2.961,7.951-9.222,0-1.439-.168-4.822-.168-6.091,0-8.206,3.468-13.451,16.581-16.328,2.621-.592,4.652,1.015,4.652,3.468a3.555,3.555,0,0,1-2.368,3.468c-8.206,2.538-9.392,5.162-9.392,10.914,0,1.692.17,4.483.17,6.261,0,6.6-3.215,9.814-8.8,11.591,5.669,1.859,8.8,4.99,8.8,11.588,0,1.777-.17,4.568-.17,6.261,0,5.752,1.185,8.376,9.392,10.914a3.555,3.555,0,0,1,2.368,3.468c0,2.454-2.031,4.061-4.652,3.469C80.392,204.933,76.924,199.687,76.924,191.4Z" transform="translate(-64.826 -136.285)" fill="#ffe5c7"/>
          <path id="Path_10464" data-name="Path 10464" d="M112.7,152.736c0,1.269-.168,4.652-.168,6.091,0,6.261,2.284,8.968,8.038,9.222,2.621.168,4.23,1.776,4.23,4.061s-1.609,3.89-4.23,4.058c-5.754.17-8.038,2.963-8.038,9.138,0,1.437.168,4.822.168,6.091,0,8.291-3.468,13.536-16.581,16.413-2.621.592-4.652-1.015-4.652-3.469a3.512,3.512,0,0,1,2.453-3.468c8.123-2.538,9.307-5.162,9.307-10.914,0-1.692-.17-4.483-.17-6.261,0-6.6,3.216-9.812,8.8-11.588-5.669-1.862-8.8-4.992-8.8-11.591,0-1.777.17-4.568.17-6.261,0-5.752-1.184-8.376-9.307-10.914a3.512,3.512,0,0,1-2.453-3.468c0-2.453,2.031-4.06,4.652-3.468C109.235,139.284,112.7,144.529,112.7,152.736Z" transform="translate(-51.032 -136.285)" fill="#ffe5c7"/>
        </g>
        <g id="Group_6386" data-name="Group 6386" transform="translate(193.897)">
          <path id="Path_10465" data-name="Path 10465" d="M223.291,115.753a4.961,4.961,0,0,1-3.465,8.5,5.25,5.25,0,0,1-3.621-1.418L194.077,100.4c-.235-.079-.314-.237-.395-.472a1.1,1.1,0,0,0-.235-.158,2.137,2.137,0,0,1-.237-.63.424.424,0,0,1-.235-.316c-.079-.156-.079-.395-.156-.472,0-.237-.158-.316-.158-.395V97.4c0-.158-.079-.235-.079-.472,0-.079.079-.314.079-.395v-.551c0-.156.158-.235.158-.314.077-.237.077-.393.156-.63,0-.079.079-.079.079-.158a5.818,5.818,0,0,1,.393-.709.155.155,0,0,1,.158-.158,1.482,1.482,0,0,1,.472-.551l22.128-22.441a5.137,5.137,0,0,1,7.086,0,4.992,4.992,0,0,1,0,7.086l-18.663,18.82Z" transform="translate(-192.582 -69.609)" fill="#b5d2ff"/>
          <path id="Path_10466" data-name="Path 10466" d="M226.164,118.232l19.292-45.908a4.372,4.372,0,0,1,5.751-2.284,4.252,4.252,0,0,1,2.2,5.591l-19.292,45.987a4.367,4.367,0,0,1-4.017,2.6,3.756,3.756,0,0,1-1.572-.314A4.255,4.255,0,0,1,226.164,118.232Z" transform="translate(-175.377 -69.568)" fill="#b5d2ff"/>
          <path id="Path_10467" data-name="Path 10467" d="M279.79,99.767a.077.077,0,0,1-.077.079,3.769,3.769,0,0,1-.551.551L257.035,122.84a5.139,5.139,0,0,1-7.088,0,4.992,4.992,0,0,1,0-7.086l18.663-18.821-18.663-18.82a4.992,4.992,0,0,1,0-7.086,5.139,5.139,0,0,1,7.088,0l22.127,22.441a3.769,3.769,0,0,1,.551.551c.077,0,.077.158.077.158a7.273,7.273,0,0,1,.395.709c0,.079.08.079.08.158a3.583,3.583,0,0,0,.235.709c0,.079.079.079.079.235v.551c0,.08.077.316.077.395s-.077.314-.077.393v.63c0,.079-.079.079-.079.158a6.772,6.772,0,0,0-.235.709c0,.079-.08.079-.08.237C280.106,99.215,279.948,99.452,279.79,99.767Z" transform="translate(-163.647 -69.609)" fill="#b5d2ff"/>
        </g>
      </g>
    </g>
    <g id="Shadow" transform="translate(52.456 684.461)">
      <ellipse id="Ellipse_204" data-name="Ellipse 204" cx="305.879" cy="24.38" rx="305.879" ry="24.38" fill="#d0e2ff"/>
    </g>
    <g id="Chair" transform="translate(61.545 466.135)">
      <g id="Group_6407" data-name="Group 6407">
        <path id="Path_10492" data-name="Path 10492" d="M54.448,479.958H238.273L201.621,266.75H64.162Z" transform="translate(-54.448 -266.75)" fill="#5a96f7"/>
        <path id="Path_10493" data-name="Path 10493" d="M54.448,479.958H70.566L79.612,266.75H64.162Z" transform="translate(-54.448 -266.75)" fill="#b5d2ff"/>
      </g>
    </g>
    <g id="Table" transform="translate(40.741 679.345)">
      <line id="Line_94" data-name="Line 94" x2="635.19" fill="none" stroke="#263238" stroke-miterlimit="10" stroke-width="1"/>
    </g>
    <g id="Device" transform="translate(283.307 495.538)">
      <g id="Group_6425" data-name="Group 6425">
        <g id="Group_6418" data-name="Group 6418" transform="translate(87.298 178.138)">
          <g id="Group_6417" data-name="Group 6417" transform="translate(2.669)">
            <g id="Group_6408" data-name="Group 6408" transform="translate(0 3.763)">
              <rect id="Rectangle_11058" data-name="Rectangle 11058" width="10.902" height="7.118" fill="#f09e62"/>
            </g>
            <g id="Group_6409" data-name="Group 6409" transform="translate(14.137 3.292)">
              <rect id="Rectangle_11059" data-name="Rectangle 11059" width="10.902" height="7.118" fill="#f09e62"/>
            </g>
            <g id="Group_6410" data-name="Group 6410" transform="translate(28.274 2.822)">
              <rect id="Rectangle_11060" data-name="Rectangle 11060" width="10.902" height="7.118" fill="#f09e62"/>
            </g>
            <g id="Group_6411" data-name="Group 6411" transform="translate(42.412 2.352)">
              <rect id="Rectangle_11061" data-name="Rectangle 11061" width="10.902" height="7.118" fill="#f09e62"/>
            </g>
            <g id="Group_6412" data-name="Group 6412" transform="translate(56.549 1.881)">
              <rect id="Rectangle_11062" data-name="Rectangle 11062" width="10.902" height="7.118" fill="#f09e62"/>
            </g>
            <g id="Group_6413" data-name="Group 6413" transform="translate(70.686 1.411)">
              <rect id="Rectangle_11063" data-name="Rectangle 11063" width="10.902" height="7.118" fill="#f09e62"/>
            </g>
            <g id="Group_6414" data-name="Group 6414" transform="translate(84.824 0.941)">
              <rect id="Rectangle_11064" data-name="Rectangle 11064" width="10.902" height="7.118" fill="#f09e62"/>
            </g>
            <g id="Group_6415" data-name="Group 6415" transform="translate(98.961 0.47)">
              <rect id="Rectangle_11065" data-name="Rectangle 11065" width="10.902" height="7.117" fill="#f09e62"/>
            </g>
            <g id="Group_6416" data-name="Group 6416" transform="translate(113.098)">
              <rect id="Rectangle_11066" data-name="Rectangle 11066" width="10.902" height="7.118" fill="#f09e62"/>
            </g>
          </g>
          <path id="Path_10494" data-name="Path 10494" d="M387.423,417.546H258.084v-8.661l129.338-3.606Z" transform="translate(-258.084 -402.573)" fill="#ffcd95"/>
        </g>
        <g id="Group_6422" data-name="Group 6422" transform="translate(129.356)">
          <g id="Group_6420" data-name="Group 6420">
            <path id="Path_10495" data-name="Path 10495" d="M499.314,445.082H285.8l33.956-158.959H533.27Z" transform="translate(-285.796 -286.123)" fill="#ffcd95"/>
            <path id="Path_10496" data-name="Path 10496" d="M504.518,445.082H291l33.956-158.959H538.474Z" transform="translate(-283.102 -286.123)" fill="#ffe5c7"/>
            <path id="Path_10497" data-name="Path 10497" d="M392.81,345.185a16.062,16.062,0,0,1-15.293,13.2c-7.29,0-12.265-5.91-11.11-13.2a16.063,16.063,0,0,1,15.292-13.2C388.991,331.984,393.965,337.894,392.81,345.185Z" transform="translate(-244.148 -262.38)" fill="#f09e62"/>
            <g id="Group_6419" data-name="Group 6419" transform="translate(112.059 30.289)">
              <path id="Path_10498" data-name="Path 10498" d="M369.434,306.08l-5.145,24.132H359.63l5.145-24.132Z" transform="translate(-359.63 -306.08)" fill="#f09e62"/>
              <path id="Path_10499" data-name="Path 10499" d="M375.99,306.08l-5.145,24.132H366.17l5.145-24.132Z" transform="translate(-356.244 -306.08)" fill="#f09e62"/>
              <path id="Path_10500" data-name="Path 10500" d="M382.524,306.08l-5.145,24.132H372.72l5.145-24.132Z" transform="translate(-352.853 -306.08)" fill="#f09e62"/>
              <path id="Path_10501" data-name="Path 10501" d="M389.08,306.08l-5.145,24.132H379.26l5.145-24.132Z" transform="translate(-349.467 -306.08)" fill="#f09e62"/>
              <path id="Path_10502" data-name="Path 10502" d="M395.614,306.08l-5.145,24.132H385.81l5.145-24.132Z" transform="translate(-346.076 -306.08)" fill="#f09e62"/>
              <path id="Path_10503" data-name="Path 10503" d="M402.17,306.08l-5.145,24.132H392.35L397.5,306.08Z" transform="translate(-342.691 -306.08)" fill="#f09e62"/>
            </g>
          </g>
          <g id="Group_6421" data-name="Group 6421" transform="translate(52.979 111.39)">
            <path id="Path_10504" data-name="Path 10504" d="M425.717,422.153H320.7V414l105.014-3.4Z" transform="translate(-320.703 -333.069)" fill="#ffcd95"/>
            <path id="Path_10505" data-name="Path 10505" d="M439.523,448.589H383.141l-33.956-89.072h56.383Z" transform="translate(-305.958 -359.517)" fill="#ffcd95"/>
            <path id="Path_10506" data-name="Path 10506" d="M445.638,448.589H389.255L355.3,359.517h56.382Z" transform="translate(-302.792 -359.517)" fill="#f09e62"/>
          </g>
        </g>
        <g id="Group_6424" data-name="Group 6424" transform="translate(0 164.495)">
          <path id="Path_10507" data-name="Path 10507" d="M311.684,432.652H203.417c-9.241,0,4.13-26.31,37.85-36.4S322.32,422.782,311.684,432.652Z" transform="translate(-200.565 -394.507)" fill="#ffcd95"/>
          <g id="Group_6423" data-name="Group 6423" transform="translate(68.634 9.354)">
            <path id="Path_10508" data-name="Path 10508" d="M245.787,429.461s1.947-20.345,18.48-28.791" transform="translate(-245.787 -400.67)" fill="none" stroke="#263238" stroke-miterlimit="10" stroke-width="1"/>
            <path id="Path_10509" data-name="Path 10509" d="M254.24,403.146s27.933,11.236,29.656,25.033" transform="translate(-241.411 -399.388)" fill="none" stroke="#263238" stroke-miterlimit="10" stroke-width="1"/>
          </g>
        </g>
      </g>
    </g>
    <g id="Character" transform="translate(90.047 341.02)">
      <g id="Group_6461" data-name="Group 6461">
        <g id="Group_6460" data-name="Group 6460">
          <g id="Group_6426" data-name="Group 6426" transform="translate(30.089)">
            <path id="Path_10510" data-name="Path 10510" d="M179.324,209.1c-5.151-10-23.647-30.764-45.659-19.648-31.411,15.863-18.6,81.283-29.655,105.807-20.035,44.44-11.164,80.534,14.995,79.5,29.315-1.161,47.993-38.093,29.387-101.782-11.633-39.823-5.227-60.657,3.078-61.658S166.9,219.2,166.9,219.2Z" transform="translate(-93.053 -183.303)" fill="#1c468a"/>
            <path id="Path_10511" data-name="Path 10511" d="M171.773,206.428a66.626,66.626,0,0,0-10.536-12.252,39.515,39.515,0,0,0-14.024-8.435,26.933,26.933,0,0,0-16.6-.226,34.881,34.881,0,0,0-14.273,8.531,39.2,39.2,0,0,0-8.692,14.112,72.185,72.185,0,0,0-3.635,15.95,144.74,144.74,0,0,0,.6,32.279,213.2,213.2,0,0,1,1.747-31.961,76.714,76.714,0,0,1,3.972-15.238A36.858,36.858,0,0,1,118.5,196.18a32.436,32.436,0,0,1,12.989-7.936A25.159,25.159,0,0,1,146.523,188a40.345,40.345,0,0,1,13.769,7.315,64.983,64.983,0,0,1,6.018,5.232Q169.133,203.378,171.773,206.428Z" transform="translate(-87.712 -184.313)" fill="#1c468a"/>
            <path id="Path_10512" data-name="Path 10512" d="M136.668,228.837c1.4,6.443,3.513,12.7,5.38,19,1.958,6.277,3.881,12.553,5.623,18.865,1.7,6.32,3.284,12.667,4.365,19.087a99.093,99.093,0,0,1,1.663,19.326,50.752,50.752,0,0,1-3.561,18.713,55.174,55.174,0,0,1-10.613,15.9,41.15,41.15,0,0,1-15.985,10.44,37.29,37.29,0,0,1-9.469,2.066,33.4,33.4,0,0,1-4.884.062,17.263,17.263,0,0,1-4.823-.813,24.284,24.284,0,0,0,9.745,1.554,38.443,38.443,0,0,0,9.883-1.454,40.9,40.9,0,0,0,9.222-4.014,44.266,44.266,0,0,0,7.983-6.165,52.035,52.035,0,0,0,6.532-7.681l1.4-2.091,1.311-2.149a37.655,37.655,0,0,0,2.337-4.53,52.909,52.909,0,0,0,3.951-19.773c.176-13.464-2.9-26.552-6.8-39.14-1.952-6.311-4.19-12.514-6.487-18.68C141.106,241.208,138.728,235.088,136.668,228.837Z" transform="translate(-87.197 -161.263)" fill="#1c468a"/>
            <path id="Path_10513" data-name="Path 10513" d="M158.543,203.4c-.448-3.055-3.328-6.585-5.392-6.783s-15.555,8.637-16.15,12.6,6.476,6.127,6.476,6.127Z" transform="translate(-70.319 -177.946)" fill="#e96a1f"/>
          </g>
          <g id="Group_6432" data-name="Group 6432" transform="translate(102.73 25.569)">
            <g id="Group_6430" data-name="Group 6430" transform="translate(2.268)">
              <path id="Path_10514" data-name="Path 10514" d="M157.044,317.107c44.757,27.024,107.6,54.868,129.673,50.764,17.812-3.306,84.526-51.824,87.863-54.6,8.209-6.931-30.957-68.89-40.867-63.059-12.489,7.346-60.12,53.6-65.532,53.621-5.637,0-45.935-5.388-92.177-12.082C144.067,287.1,129.271,300.337,157.044,317.107Z" transform="translate(-142.41 -175.967)" fill="#febbba"/>
              <g id="Group_6429" data-name="Group 6429" transform="translate(168.363)">
                <path id="Path_10515" data-name="Path 10515" d="M277.767,241.056c10.688-5.459,22.508-12.577,35-14s25.032,13.65,25.66,18.361-.161,34.722-12.624,36.383-7.945-21.916-8.76-24.44-1.726-5.77-4.045-5.215S272.13,277.7,272.13,277.7Z" transform="translate(-243.615 -187.804)" fill="#febbba"/>
                <g id="Group_6427" data-name="Group 6427" transform="translate(35.176 35.635)">
                  <path id="Path_10516" data-name="Path 10516" d="M276.519,243.87c.706-.094,32.342-17.71,44.836-19.135s25.033,13.649,25.661,18.36-.161,34.722-12.624,36.383-7.945-21.916-8.76-24.44-1.726-5.769-4.045-5.213-40.87,25.557-40.87,25.557Z" transform="translate(-276.519 -224.64)" fill="#febbba"/>
                  <path id="Path_10517" data-name="Path 10517" d="M321.917,270.148c-1.8-1.767-2.459-4.694-3.055-7.088a25.849,25.849,0,0,1-.609-8.018c.159-2.33.829-4.716.6-7.056a13.868,13.868,0,0,0-2.615-6.359c-1.194-1.619-2.946-.779-4.445-.014a62.691,62.691,0,0,0-6.368,3.966c-2.225,1.5-4.417,3.048-6.616,4.582A65.08,65.08,0,0,0,292.1,255.1c-.153.138,0,.42.2.319a67.368,67.368,0,0,0,5.945-3.687q3.328-2.138,6.695-4.216c2.1-1.29,4.131-2.692,6.25-3.946.75-.442,2.223-1.5,3.152-1.421.984.087,1.762,2.362,2.075,3.093.985,2.3.814,4.383.466,6.792a35.47,35.47,0,0,0-.379,7,18.317,18.317,0,0,0,1.384,6.424c.856,1.909,2.421,3.334,3.685,4.964C321.752,270.661,322.119,270.345,321.917,270.148Z" transform="translate(-268.483 -216.325)" fill="#263238"/>
                </g>
                <g id="Group_6428" data-name="Group 6428">
                  <path id="Path_10518" data-name="Path 10518" d="M253.342,294s30.345-36.078,36.7-43.287c12.752-14.464,70.193-47.369,78.539-49.392s13.717,14.925-25.112,38.445c-20.465,12.4-22.675,25.358-21.341,32.2s9.63,18.82,21.189,16.96,16.828-19.792,27.237-23.093,5.974,17.174-.047,29.463-18.436,23.417-27.968,28.516-38.8,22.614-38.8,22.614Z" transform="translate(-253.342 -201.16)" fill="#febbba"/>
                  <path id="Path_10519" data-name="Path 10519" d="M333.262,265.813c-3.917,3.966-8.284,9.008-14,9.99-5.913,1.015-10.289-2.33-13.691-6.8-3.433-4.512-5.792-9.867-5.183-15.637a27.215,27.215,0,0,1,6.215-14.069,66.039,66.039,0,0,1,14.324-12.553c.234-.161-.036-.5-.284-.346-5.021,3.1-20.718,12.107-22.086,27.214-.559,6.173,1.953,11.277,5.411,15.918,3.184,4.274,7.52,8.231,13.2,7.936,6.93-.358,12.087-6.716,16.455-11.533C333.818,265.714,333.467,265.6,333.262,265.813Z" transform="translate(-229.976 -188.116)" fill="#263238"/>
                </g>
              </g>
            </g>
            <g id="Group_6431" data-name="Group 6431" transform="translate(0 112.319)">
              <path id="Path_10520" data-name="Path 10520" d="M263.22,285.954l-51.81,49.191s-34.431-15.279-60.311-33.686.821-29.793,43.548-25.321S263.22,285.954,263.22,285.954Z" transform="translate(-140.915 -275.166)" fill="#e96a1f"/>
              <path id="Path_10521" data-name="Path 10521" d="M188.994,329.168c-.228-.106-.455-.228-.683-.334,0-.106-.015-.2-.015-.3a39.644,39.644,0,0,0-2.443-12.157,10.492,10.492,0,0,0-3.673-4.75,7.646,7.646,0,0,0-2.793-1.078,22.749,22.749,0,0,0-3.066-.106,41.824,41.824,0,0,0-12.172,2.444c-1.078.379-2.155.789-3.218,1.229-.2-.121-.395-.228-.592-.349,1.2-.5,2.4-.971,3.612-1.412a42.925,42.925,0,0,1,12.354-2.519,22.644,22.644,0,0,1,3.187.121,8.054,8.054,0,0,1,3.02,1.154,11.076,11.076,0,0,1,3.916,5.024,39.724,39.724,0,0,1,2.519,12.339C188.964,328.7,188.979,328.94,188.994,329.168Zm35.469-48.157c-.076.212-.152.41-.228.622-1.9,5.054-4.28,10.138-8.408,13.69a14.194,14.194,0,0,1-7.285,3.157,14.427,14.427,0,0,1-7.816-1.487c-4.9-2.337-8.924-6.162-12.749-10-3.718-3.779-7.239-7.755-10.912-11.58h-.015a1.676,1.676,0,0,0-.273-.03c3.688,3.9,7.239,7.938,11,11.808,3.809,3.87,7.816,7.725,12.794,10.154a13.926,13.926,0,0,0,15.526-1.7c4.219-3.643,6.617-8.788,8.56-13.842.091-.243.182-.47.258-.713C224.767,281.056,224.615,281.026,224.463,281.011ZM197.1,333.068c2.7,1.275,4.25,1.958,4.25,1.958l.076-.061C200,334.313,198.541,333.691,197.1,333.068Z" transform="translate(-130.859 -275.055)" fill="#fff"/>
              <path id="Path_10522" data-name="Path 10522" d="M178.925,322.742c10.451-11.368,21.712-22.02,33.154-32.424q4.856-4.414,9.917-8.6c.094-.079.235.038.144.132-5.339,5.566-10.9,10.912-16.437,16.293-5.549,5.392-11.149,10.748-16.848,15.988-3.219,2.958-6.434,5.916-9.713,8.809C179,323.062,178.795,322.884,178.925,322.742Z" transform="translate(-121.259 -271.787)" fill="#1c468a"/>
              <path id="Path_10523" data-name="Path 10523" d="M232.939,311.994,211.4,332.438s-34.422-15.268-60.3-33.678c-10.533-7.5-12.354-13.826-7.938-18.379Z" transform="translate(-140.913 -272.466)" opacity="0.1"/>
            </g>
          </g>
          <g id="Group_6435" data-name="Group 6435" transform="translate(18.059 138.392)">
            <path id="Path_10524" data-name="Path 10524" d="M258.356,475.7H85.127s37.623-145.306,72.448-186.213c.779-.944,1.583-1.833,2.389-2.665.167-.2.305-.334.472-.5a37.2,37.2,0,0,1,9.3-7.192c.612-.334,1.222-.639,1.861-.917,13.414-6.165,27.577-1.055,37.8,7.693,3.249,2.777,39.963,50.544,43.212,68.761,2.8,16.08-8.054,33.353-8.054,33.353Z" transform="translate(-85.127 -275.498)" fill="#e96a1f"/>
            <g id="Group_6433" data-name="Group 6433" transform="translate(90.002 106.293)">
              <path id="Path_10525" data-name="Path 10525" d="M187.856,345.535a150.2,150.2,0,0,0-21.881,3.8c-3.561.945-7.053,2.05-10.542,3.233-1.738.59-3.486,1.12-5.245,1.641a23.611,23.611,0,0,1-5.635,1.114.132.132,0,0,0,.006.264,40.128,40.128,0,0,0,5.436-.147,39.092,39.092,0,0,0,5.174-1.023c3.621-.924,7.2-2.017,10.808-2.979,7.285-1.941,14.567-3.879,21.978-5.289C188.294,346.078,188.2,345.5,187.856,345.535Z" transform="translate(-144.428 -345.533)" fill="#263238"/>
              <path id="Path_10526" data-name="Path 10526" d="M197.609,349.993a162.5,162.5,0,0,0-18.313-.719c-3.061.064-6.092.3-9.135.625-1.452.153-2.9.334-4.35.53-1.594.217-3.158.648-4.752.842-.167.02-.165.279.006.264,1.509-.138,3.048-.026,4.562-.074s3.045-.111,4.567-.162c3.049-.1,6.1-.167,9.144-.3,6.1-.259,12.177-.457,18.282-.505C197.952,350.492,197.921,350.021,197.609,349.993Z" transform="translate(-135.882 -343.612)" fill="#263238"/>
            </g>
            <g id="Group_6434" data-name="Group 6434" transform="translate(100.452 66.387)" opacity="0.1">
              <path id="Path_10527" data-name="Path 10527" d="M167.687,340.757a2.352,2.352,0,0,1,1,3.075,1.767,1.767,0,0,1-1.334.751,2.9,2.9,0,0,1-1.806-.472l-12.981-8.863a.38.38,0,0,1-.241-.19A.62.62,0,0,0,152.2,335a1.349,1.349,0,0,1-.194-.264.262.262,0,0,1-.149-.127c-.056-.065-.09-.169-.137-.2-.033-.1-.114-.131-.124-.164l-.079-.24c-.023-.068-.068-.1-.1-.2-.011-.033-.009-.14-.021-.175l-.077-.238c-.023-.068.036-.109.026-.143,0-.106-.021-.175-.021-.279-.011-.035.024-.038.014-.071a1.871,1.871,0,0,1,.073-.323.054.054,0,0,1,.049-.074.475.475,0,0,1,.131-.258l6.622-10.609a2.275,2.275,0,0,1,3.139-.279,2.352,2.352,0,0,1,1,3.073l-5.6,8.9Z" transform="translate(-151.314 -318.397)"/>
              <path id="Path_10528" data-name="Path 10528" d="M168.2,341.671l2.041-20.677a1.6,1.6,0,0,1,2.223-1.219,2.381,2.381,0,0,1,1.768,2.339L172.2,342.826a1.466,1.466,0,0,1-1.411,1.285,1.881,1.881,0,0,1-.742-.074A2.388,2.388,0,0,1,168.2,341.671Z" transform="translate(-142.576 -319.01)"/>
              <path id="Path_10529" data-name="Path 10529" d="M191.532,331.3s.011.035-.024.038a1.173,1.173,0,0,1-.165.259l-6.62,10.61a1.792,1.792,0,0,1-1.369.754,2.814,2.814,0,0,1-1.771-.475,2.355,2.355,0,0,1-1-3.075l5.6-8.9-10.934-7.429a2.353,2.353,0,0,1-1-3.075,2.271,2.271,0,0,1,3.139-.279l12.981,8.863a2.317,2.317,0,0,1,.322.219c.035,0,.058.065.058.065.114.13.206.193.275.291.012.035.047.032.058.065a2.042,2.042,0,0,0,.2.3c.012.035.046.032.068.1l.079.238c.011.035.079.135.09.168s.011.14.021.174l.09.273c.011.033-.023.036-.012.071a2.587,2.587,0,0,0,0,.317c.011.033-.024.036,0,.1C191.594,331.043,191.558,331.153,191.532,331.3Z" transform="translate(-139.58 -319.24)"/>
            </g>
            <path id="Path_10530" data-name="Path 10530" d="M242.279,410.026a6.973,6.973,0,0,1-.744.395l-1.442.668c-.486.212-1,.349-1.5.531a19.574,19.574,0,0,1-3.1.744,15.79,15.79,0,0,1-6.359-.41,9.6,9.6,0,0,1-2.838-1.563,11.149,11.149,0,0,1-2.14-2.413,20.105,20.105,0,0,1-2.565-5.813,58.79,58.79,0,0,1-1.806-12.476c-.03-.728-.061-1.457-.076-2.185-.015-.273-.03-.546-.03-.82-.212-7.391.152-14.767.546-22.128.455-8.363,1.062-16.71,1.245-25.073.076-3.673.091-7.361-.121-11.019,0-.167-.015-.334-.03-.5-.015-.334-.03-.653-.061-.987a39.645,39.645,0,0,0-2.444-12.157,10.492,10.492,0,0,0-3.673-4.75,7.645,7.645,0,0,0-2.793-1.078,22.739,22.739,0,0,0-3.066-.106,41.823,41.823,0,0,0-12.172,2.443,81.405,81.405,0,0,0-7.8,3.263l-.592.273c-4.781,2.307-9.395,4.978-13.963,7.695-7.194,4.28-14.266,8.772-21.7,12.658-2.535,1.305-5.1,2.55-7.725,3.643-.106.046-.2.091-.3.137q-1.707.706-3.46,1.32a41.24,41.24,0,0,1-12.324,2.5,22.742,22.742,0,0,1-6.86-.911c.046-.106.076-.2.121-.288a22.932,22.932,0,0,0,6.739.835,40.977,40.977,0,0,0,12.187-2.535c1.138-.41,2.277-.85,3.4-1.305l.319-.137c2.626-1.108,5.191-2.337,7.71-3.658,7.391-3.885,14.449-8.393,21.643-12.7,4.447-2.641,8.955-5.266,13.629-7.558.2-.091.379-.2.577-.288a86.976,86.976,0,0,1,8.211-3.476,42.925,42.925,0,0,1,12.354-2.519,22.64,22.64,0,0,1,3.187.121,8.053,8.053,0,0,1,3.02,1.153,11.076,11.076,0,0,1,3.916,5.024,39.724,39.724,0,0,1,2.519,12.339c.03.44.061.88.076,1.32a2.612,2.612,0,0,1,.03.486c.212,3.6.212,7.194.152,10.776-.167,8.393-.744,16.74-1.2,25.1-.379,7.042-.744,14.084-.607,21.111,0,.273,0,.546.015.82.03,1.047.061,2.079.106,3.126a57.868,57.868,0,0,0,1.745,12.324,19.48,19.48,0,0,0,2.459,5.631,11.131,11.131,0,0,0,2.019,2.277,8.741,8.741,0,0,0,2.626,1.457,15.114,15.114,0,0,0,6.071.41,20.584,20.584,0,0,0,3.005-.713c.486-.182.971-.319,1.457-.516l1.4-.637c.3-.152.607-.3.911-.47Zm4.219-57.491a133.55,133.55,0,0,0-9.516,10.594c-5.889,7.27-11.246,14.934-16.619,22.584-.228.319-.455.637-.683.971-.668.956-1.351,1.9-2.019,2.853-3.734,5.266-7.513,10.548-11.519,15.617-.106.137-.212.288-.334.425-2.641,3.324-5.373,6.556-8.287,9.637a75.319,75.319,0,0,1-12.218,10.73,35.141,35.141,0,0,1-3.415,2.185c-1.153.729-2.383,1.305-3.582,1.928a11.529,11.529,0,0,1-7.725,1.184,15.784,15.784,0,0,1-6.936-3.84,37.786,37.786,0,0,1-5.358-6.056,102.041,102.041,0,0,1-8.256-14.024c-4.872-9.744-9.015-19.836-13.3-29.853-4.325-10-8.636-20.064-14.054-29.565-.531-.926-1.078-1.836-1.639-2.747-.106.258-.212.531-.319.789.471.759.926,1.533,1.366,2.307,5.373,9.455,9.653,19.5,13.948,29.519,4.31,10,8.469,20.094,13.371,29.853a104.823,104.823,0,0,0,8.347,14.115,38.912,38.912,0,0,0,5.464,6.147,16.243,16.243,0,0,0,7.239,3.961,12.1,12.1,0,0,0,8.1-1.244c1.229-.622,2.474-1.214,3.627-1.943,1.2-.683,2.337-1.427,3.46-2.216a78.78,78.78,0,0,0,12.293-10.836c2.884-3.081,5.616-6.314,8.226-9.622.121-.137.228-.288.334-.425,4.037-5.115,7.816-10.427,11.565-15.739l1.639-2.322c.213-.319.44-.637.668-.971,5.494-7.831,10.928-15.693,16.953-23.13a130.179,130.179,0,0,1,9.273-10.381C246.574,352.869,246.544,352.7,246.5,352.535ZM163.328,462.16c-6.769-8.53-13.417-17.211-20.747-25.285-7.331-8.029-15.45-15.693-25.391-20.428a37.021,37.021,0,0,0-7.786-2.519,36.492,36.492,0,0,0-4.067-.607,36.944,36.944,0,0,0-4.1-.076,34.074,34.074,0,0,0-4.477.395l-.091.273a33.158,33.158,0,0,1,4.583-.395,40.475,40.475,0,0,1,4.067.091,35.481,35.481,0,0,1,4.007.637,36.133,36.133,0,0,1,7.71,2.535c9.835,4.72,17.924,12.369,25.209,20.383,7.315,8.074,13.933,16.756,20.686,25.3,3.126,3.946,6.283,7.892,9.546,11.747h.7C169.808,470.264,166.561,466.212,163.328,462.16Zm83.231-24.891c-1.047,2.793-2.064,5.57-3.1,8.363-3.476,9.577-6.83,19.2-10.791,28.579h.759c3.931-9.3,7.27-18.835,10.745-28.32.865-2.368,1.745-4.75,2.626-7.118Zm-15.83,15.238c-.137-.789-.258-1.594-.425-2.4l-.546-2.368c-.319-1.578-.82-3.126-1.26-4.69a84.132,84.132,0,0,0-7.756-17.772,126.389,126.389,0,0,0-14.236-19.715,4.408,4.408,0,0,1-.364-.41c-3.051-3.506-6.223-6.875-9.44-10.2-9.046-9.243-18.577-17.97-27.683-27.121-4.538-4.583-8.985-9.258-13.2-14.145-1.062-1.214-2.11-2.443-3.126-3.688-1.032-1.245-2.034-2.5-2.975-3.809a47.781,47.781,0,0,1-4.386-7.33,1.747,1.747,0,0,1-.182-.379,5.668,5.668,0,0,1-.3-.607,46.461,46.461,0,0,1-4.159-18.713,61.056,61.056,0,0,1,2.914-19.032c.228-.744.486-1.5.744-2.231-.121.182-.228.364-.349.546q-.3.82-.546,1.639a61.307,61.307,0,0,0-3.02,19.078,46.913,46.913,0,0,0,4.113,18.85c.091.212.182.41.288.607a1.3,1.3,0,0,0,.2.379,49.4,49.4,0,0,0,4.386,7.422c.941,1.32,1.958,2.58,2.99,3.825,1.017,1.244,2.049,2.489,3.111,3.7,4.219,4.9,8.666,9.592,13.2,14.191,9.106,9.167,18.622,17.924,27.622,27.152,3.248,3.339,6.435,6.769,9.471,10.29.137.137.243.273.364.41a124.354,124.354,0,0,1,14.084,19.563,84.5,84.5,0,0,1,7.68,17.666c.425,1.563.911,3.1,1.229,4.659l.546,2.352c.152.789.273,1.594.425,2.383a32.5,32.5,0,0,1-3.02,21.6h.728a33.055,33.055,0,0,0,2.884-21.7Zm8.56-116.8c-.273-.137-.562-.273-.835-.41-5.4-2.58-10.912-4.872-16.467-7.057-.228-.091-.44-.182-.668-.273-4.811-1.9-9.653-3.734-14.449-5.631-5.282-2.11-10.533-4.28-15.632-6.769-.637-.319-1.29-.637-1.927-.971-.2-.091-.395-.2-.607-.319a73.535,73.535,0,0,1-11.975-7.528,39.527,39.527,0,0,1-10.988-12.734,29.544,29.544,0,0,1-2.853-7.907,28.05,28.05,0,0,1-.425-7.725,7.259,7.259,0,0,0-.637.395,29.127,29.127,0,0,0,.47,7.437,30.679,30.679,0,0,0,2.944,8.074A40.092,40.092,0,0,0,176.4,307.171a76.628,76.628,0,0,0,11.732,7.391c.2.106.395.212.592.3.759.395,1.518.774,2.292,1.153,5.13,2.5,10.4,4.659,15.678,6.754,4.872,1.927,9.789,3.764,14.661,5.691.228.076.44.167.668.258,5.494,2.155,10.928,4.4,16.255,6.951.455.212.911.44,1.366.653C239.517,336.129,239.4,335.916,239.289,335.7Z" transform="translate(-79.151 -274.006)" fill="#fff"/>
          </g>
          <g id="Group_6445" data-name="Group 6445" transform="translate(0 142.766)">
            <g id="Group_6442" data-name="Group 6442" transform="translate(0 0.486)">
              <path id="Path_10531" data-name="Path 10531" d="M157.423,291.549c-30.019,30.929-102.265,147.781-80,170.016,22.418,22.392,146.523,8.314,180.785,1.747,11.444-2.193-16.048-77.6-28.38-79.367-10.267-1.474-70.923,10.283-73.019,7.62-1.7-2.16,10.492-30.415,24.034-75.884C196.455,263.254,170.682,277.886,157.423,291.549Z" transform="translate(-73.228 -278.7)" fill="#febbba"/>
              <g id="Group_6441" data-name="Group 6441" transform="translate(144.53 85.057)">
                <path id="Path_10532" data-name="Path 10532" d="M215.138,344.845c25.813.334,32.39,4.382,54.323-6.906,14.394-7.406,25.3-1.395,15.631,12.386-15.815,22.543-49.207,29.107-61.44,28.049Z" transform="translate(-144.29 -334.743)" fill="#febbba"/>
                <g id="Group_6436" data-name="Group 6436" transform="translate(0 9.979)">
                  <path id="Path_10533" data-name="Path 10533" d="M168.457,355.536s30.8-11.441,58.348-13.807c19.047-1.636,60.882-.575,93.975,45.908,7.85,11.025,11.216,32.3-8.144,18.952-13.752-9.484-19.607-19.653-28.612-23.713,0,0,1.07,27.572-10.282,35-5.072,3.322-19.132,12.064-31.049,17.31a52.771,52.771,0,0,1-3.759-5.52s-11.26,5.942-30.031,1.223Z" transform="translate(-168.457 -341.318)" fill="#febbba"/>
                </g>
                <g id="Group_6440" data-name="Group 6440" transform="translate(59.393 11.732)">
                  <path id="Path_10534" data-name="Path 10534" d="M224.974,342.473c8.083,5.919,25.009,18.751,35.2,34.064,11.324,17.007,28.55,52.821,15.909,61.05-9.269,6.034-17.048-7.062-17.048-7.062s4,16.3-5.565,19.924c-8.716,3.3-14.127-7.194-14.127-7.194s.725,10.307-8.282,11.865c-10.835,1.877-10.578-20.032-23.2-27.615C205.034,425.8,224.974,342.473,224.974,342.473Z" transform="translate(-207.591 -342.473)" fill="#febbba"/>
                  <g id="Group_6439" data-name="Group 6439" transform="translate(15.606 43)">
                    <g id="Group_6437" data-name="Group 6437" transform="translate(16.84)">
                      <path id="Path_10535" data-name="Path 10535" d="M229.142,370.835c6.69,6.811,17.915,26.184,19.023,44.645.024.419-.278.662-.382.285a200.45,200.45,0,0,0-18.8-44.824C228.925,370.844,229.066,370.758,229.142,370.835Z" transform="translate(-228.969 -370.805)" fill="#263238"/>
                    </g>
                    <g id="Group_6438" data-name="Group 6438" transform="translate(0 11.923)">
                      <path id="Path_10536" data-name="Path 10536" d="M218.049,378.7c5.169,6.472,15.846,26.955,16.326,45.7.011.419-.31.644-.4.263-4.92-21.205-12.266-38.409-16.094-45.867C217.832,378.693,217.984,378.612,218.049,378.7Z" transform="translate(-217.873 -378.661)" fill="#263238"/>
                    </g>
                  </g>
                </g>
              </g>
              <path id="Path_10537" data-name="Path 10537" d="M244.7,368.6c7.866,3.68,12.608,8.539,18.824,14.426a114.264,114.264,0,0,0,9.586,8.338c3.081,2.327,7.61,5.823,11.617,3.527,2.229-1.279,2.639-4.162,2.544-6.5a18.4,18.4,0,0,0-1.9-7.569c-.061-.12.146-.229.208-.109a24.682,24.682,0,0,1,2.478,6.608,11.083,11.083,0,0,1-.237,6.541c-1.9,4.359-7.349,4.139-10.952,2.311a36.494,36.494,0,0,1-6.006-4.127c-1.821-1.451-3.573-2.987-5.285-4.567-3.512-3.242-6.834-6.684-10.308-9.967a108.51,108.51,0,0,0-10.738-8.658C244.392,368.746,244.544,368.523,244.7,368.6Z" transform="translate(15.429 -232.168)" fill="#263238"/>
              <path id="Path_10538" data-name="Path 10538" d="M259.113,400.207c-1.414-5.022-9.974-26.344-13.028-31.441a.119.119,0,0,1,.194-.137c5.493,7.066,13.347,24.8,14.962,30.35,1.6,5.48,3.334,12.439,2.466,18.146-1.311,8.605-7.268,9.366-9.443,9.464a11.292,11.292,0,0,1-7.142-2.314c-2.318-1.689-4.342-4.766-5.687-7.252-.071-.131.109-.267.194-.137,2.465,3.844,6.91,7.948,11.68,8.045a7.921,7.921,0,0,0,5.76-2.06c1.759-1.754,2.27-4.336,2.433-6.722C261.868,410.749,260.567,405.366,259.113,400.207Z" transform="translate(13.846 -232.168)" fill="#263238"/>
              <path id="Path_10539" data-name="Path 10539" d="M228.867,413.12c1.041,1.208,2.967,5.153,6.772,6.514,2.782,1,5.823,1.182,8.346-.572a11.308,11.308,0,0,0,4.292-7.353c.325-1.624.1-8.889-.15-11.107-.02-.174.2-.219.229-.052.665,3.987,1.373,8.325.809,12.046a11.86,11.86,0,0,1-4.6,8.076,8.9,8.9,0,0,1-9.293.5c-1.445-.807-5.816-4.649-6.755-7.927C228.491,413.17,228.822,413.066,228.867,413.12Z" transform="translate(7.164 -215.671)" fill="#263238"/>
              <path id="Path_10540" data-name="Path 10540" d="M208.55,397.577a21.109,21.109,0,0,1,3.18,3.633c1.031,1.346,2.012,2.735,2.963,4.139a49.362,49.362,0,0,1,4.711,9.065c1.293,3.184,2.4,6.683,4.923,9.146a8.153,8.153,0,0,0,9.386,1.669,7.976,7.976,0,0,0,3.609-3.916,15.564,15.564,0,0,0,1.443-5.788.118.118,0,1,1,.234.011c-.134,1.833.1,3.592-.39,5.4a9.508,9.508,0,0,1-2.378,4.275,9.081,9.081,0,0,1-9.287,1.943c-3.494-1.208-5.72-4.315-7.226-7.534-1.679-3.588-2.938-7.332-4.779-10.85-.967-1.85-1.911-3.714-3.01-5.491-1.144-1.85-2.592-3.573-3.612-5.486C208.234,397.639,208.4,397.454,208.55,397.577Z" transform="translate(-3.303 -217.177)" fill="#263238"/>
              <path id="Path_10541" data-name="Path 10541" d="M201.129,401.649a74.929,74.929,0,0,0,14.3-.76c.152-.026.291.411.15.463a33.1,33.1,0,0,1-7.18,1.216,24.753,24.753,0,0,1-7.271-.66C201,401.873,200.969,401.638,201.129,401.649Z" transform="translate(-7.07 -215.442)" fill="#263238"/>
              <path id="Path_10542" data-name="Path 10542" d="M87.42,378.89a184.179,184.179,0,0,1,23.4-12.776,178.811,178.811,0,0,1,24.745-9.039c4.814-1.425,9.678-2.614,14.546-3.835.149-.038.2.19.053.231a230.208,230.208,0,0,0-24.985,8.833q-12.191,4.981-24.183,10.4c-4.526,2.046-8.953,4.306-13.406,6.5A.178.178,0,0,1,87.42,378.89Z" transform="translate(-65.926 -240.113)" fill="#263238"/>
            </g>
            <g id="Group_6444" data-name="Group 6444" transform="translate(22.521)">
              <path id="Path_10543" data-name="Path 10543" d="M88.067,364.841l71.436-.982s13.969-34.982,19.635-66.23-20.2-22.177-47.652,10.864S88.067,364.841,88.067,364.841Z" transform="translate(-88.067 -278.38)" fill="#e96a1f"/>
              <path id="Path_10544" data-name="Path 10544" d="M163.829,325.9c-.061.228-.121.455-.2.683-4.781,2.9-9.577,5.752-14.54,8.347-2.535,1.305-5.1,2.55-7.725,3.642-.106.046-.2.091-.3.137q-1.707.706-3.46,1.32a41.238,41.238,0,0,1-12.324,2.5,22.944,22.944,0,0,1-11.717-2.929c-.121-.061-.243-.121-.364-.2-.395-.228-.774-.455-1.153-.7a32.192,32.192,0,0,1-7.725-7.255c.03-.046.076-.106.106-.152A32.44,32.44,0,0,0,111.484,338a16.451,16.451,0,0,0,1.685,1.062,1.017,1.017,0,0,0,.167.106,22.868,22.868,0,0,0,11.944,3.005,40.977,40.977,0,0,0,12.187-2.535c1.138-.41,2.277-.85,3.4-1.305l.319-.137c2.626-1.108,5.191-2.337,7.71-3.658C153.98,331.868,158.912,328.893,163.829,325.9Zm-45.106,21.718a82.674,82.674,0,0,0-5.16-8.014c-.121-.182-.258-.364-.395-.546a49.965,49.965,0,0,0-4.052-4.72,24.545,24.545,0,0,0-4.3-3.536c-.121.167-.258.334-.395.5a24.541,24.541,0,0,1,4.219,3.506c1,1.017,1.943,2.079,2.838,3.187.182.228.379.471.562.713a76.647,76.647,0,0,1,6.086,9.258c2.944,5.175,5.555,10.518,8.014,15.951l.789-.015C124.415,358.367,121.743,352.9,118.723,347.622Zm33.132,5.782c-1.062-1.214-2.11-2.443-3.126-3.688-1.032-1.245-2.034-2.5-2.975-3.809a47.774,47.774,0,0,1-4.386-7.331,1.747,1.747,0,0,1-.182-.379,5.658,5.658,0,0,1-.3-.607,46.46,46.46,0,0,1-4.159-18.713,61.057,61.057,0,0,1,2.914-19.032,87.21,87.21,0,0,1,5.494-13.4.711.711,0,0,0-.182.137,86.57,86.57,0,0,0-5.464,13.219,61.308,61.308,0,0,0-3.02,19.078,46.914,46.914,0,0,0,4.113,18.85c.091.212.182.41.288.607a1.3,1.3,0,0,0,.2.379,49.393,49.393,0,0,0,4.386,7.422c.941,1.32,1.958,2.58,2.99,3.825,1.017,1.245,2.049,2.489,3.111,3.7.759.88,1.518,1.745,2.292,2.61.061-.137.106-.273.167-.425C153.281,355.043,152.568,354.224,151.855,353.4Zm9.926-59.676a29.544,29.544,0,0,1-2.853-7.907,28.337,28.337,0,0,1-.486-6.89,5.84,5.84,0,0,0-.607.212,28.3,28.3,0,0,0,.5,6.784A30.679,30.679,0,0,0,161.28,294a37.809,37.809,0,0,0,8.059,10.275c.046-.2.091-.41.137-.622A37.043,37.043,0,0,1,161.781,293.728Z" transform="translate(-79.653 -278.095)" fill="#fff"/>
              <g id="Group_6443" data-name="Group 6443" transform="translate(11.689 46.683)">
                <path id="Path_10545" data-name="Path 10545" d="M133.244,347.636c.384,0,2.9-.384,2.916-.384.2-.935,4.555-15.584,5.687-18.768,2.307-6.487,5-12.858,7.593-19.234a.172.172,0,0,1,.328.106c-1.72,5.494-3.337,11.029-5.1,16.511.515-.773,1.021-1.55,1.51-2.339,1-1.618,1.876-3.3,2.809-4.954.083-.149.317-.032.267.126a28.2,28.2,0,0,1-3.274,6.506,23.763,23.763,0,0,1-1.9,2.486c-.15.455-.293.914-.445,1.369-1.076,3.2-6.613,19.047-6.88,19.058-.065,0-2.645.009-3.445,0C133.109,348.119,133.047,347.635,133.244,347.636Z" transform="translate(-76.43 -309.139)" fill="#1c468a"/>
                <path id="Path_10546" data-name="Path 10546" d="M95.9,326.582c15.418-.851,30.919-.627,46.374-.1q6.559.225,13.1.759c.123.009.143.19.012.194-7.708.263-15.424.211-23.144.2-7.737-.006-15.485-.077-23.224-.3-4.369-.127-8.736-.249-13.1-.466C95.734,326.866,95.71,326.592,95.9,326.582Z" transform="translate(-95.769 -300.402)" fill="#1c468a"/>
              </g>
            </g>
          </g>
          <g id="Group_6459" data-name="Group 6459" transform="translate(95.14 18.337)">
            <g id="Group_6446" data-name="Group 6446" transform="translate(15.506 72.716)">
              <path id="Path_10547" data-name="Path 10547" d="M146.16,295.829c.527,3.064,13.785,23.54,27.637,23.714,4.511.049,5.877-24.564,5.877-24.564l.518-1.794,7.206-25.117L158.638,247.1l-4.171-2.8s-1.518,7-3.321,15.739c-.087.405-.173.81-.258,1.245-.115.492-.229.955-.316,1.418-.287,1.3-.574,2.633-.83,3.964-.2,1.012-.4,2-.572,3.066-.2,1.07-.372,2.113-.572,3.183C146.858,283.508,145.955,294.528,146.16,295.829Z" transform="translate(-146.131 -244.307)" fill="#febbba"/>
              <path id="Path_10548" data-name="Path 10548" d="M149.436,260.046a52.411,52.411,0,0,0,29.044,33.139l7.206-25.117L156.927,247.1l-4.171-2.8S151.239,251.31,149.436,260.046Z" transform="translate(-144.42 -244.307)" fill="#1c468a"/>
            </g>
            <g id="Group_6458" data-name="Group 6458">
              <path id="Path_10549" data-name="Path 10549" d="M223.214,242.06c12.949,43.992-11.937,56.717-21.426,59.5-8.614,2.525-38.268,10.029-55.694-32.388s-1.065-62.348,18.329-69.165S210.263,198.068,223.214,242.06Z" transform="translate(-134.471 -195.828)" fill="#febbba"/>
              <g id="Group_6453" data-name="Group 6453" transform="translate(47.636 36.302)">
                <path id="Path_10550" data-name="Path 10550" d="M191.234,224.477a29.8,29.8,0,0,1-3.163.179,5.118,5.118,0,0,1-3.259-.433,1.633,1.633,0,0,1-.519-1.924c.674-1.39,2.145-1.827,3.6-1.953a5.941,5.941,0,0,1,4.149,1.055A1.739,1.739,0,0,1,191.234,224.477Z" transform="translate(-158.569 -220.314)" fill="#263238"/>
                <path id="Path_10551" data-name="Path 10551" d="M170.122,230.514a30.26,30.26,0,0,0,2.821-1.44,5.118,5.118,0,0,0,2.6-2.019,1.631,1.631,0,0,0-.524-1.921c-1.282-.862-2.771-.5-4.095.129a5.941,5.941,0,0,0-3.052,3A1.74,1.74,0,0,0,170.122,230.514Z" transform="translate(-167.088 -218.083)" fill="#263238"/>
                <g id="Group_6448" data-name="Group 6448" transform="translate(0 19.184)">
                  <g id="Group_6447" data-name="Group 6447" transform="translate(4.885)">
                    <path id="Path_10552" data-name="Path 10552" d="M175.011,234.539c-.058-.108-.193.211-.152.332.98,2.966,1.6,6.528-.81,8.323-.076.056-.023.2.074.159C177.29,241.911,176.414,237.191,175.011,234.539Z" transform="translate(-168.713 -232.145)" fill="#263238"/>
                    <path id="Path_10553" data-name="Path 10553" d="M173.22,233.011c-4.925,1.059-2.445,10.829,2.117,9.848C179.826,241.895,177.346,232.125,173.22,233.011Z" transform="translate(-170.52 -232.955)" fill="#263238"/>
                  </g>
                  <path id="Path_10554" data-name="Path 10554" d="M173.1,233.689c-.713.769-1.3,1.958-2.3,2.321-1.161.42-2.319-.375-3.347-1.161-.106-.082-.17.024-.138.155.446,1.879,1.654,3.617,3.732,3.386,1.9-.209,2.79-2.2,2.779-4.2C173.819,233.818,173.385,233.379,173.1,233.689Z" transform="translate(-167.302 -232.629)" fill="#263238"/>
                </g>
                <g id="Group_6450" data-name="Group 6450" transform="translate(28.889 10.594)">
                  <g id="Group_6449" data-name="Group 6449" transform="translate(0 1.742)">
                    <path id="Path_10555" data-name="Path 10555" d="M186.343,231.093c0-.121.272.085.3.211.648,3.055,1.9,6.447,4.9,6.78.093.011.121.164.017.174C188.091,238.61,186.467,234.092,186.343,231.093Z" transform="translate(-186.332 -227.089)" fill="#263238"/>
                    <path id="Path_10556" data-name="Path 10556" d="M188.276,228.613c4.787-1.568,7.572,8.12,3.137,9.574C187.049,239.615,184.264,229.928,188.276,228.613Z" transform="translate(-186.336 -228.442)" fill="#263238"/>
                  </g>
                  <path id="Path_10557" data-name="Path 10557" d="M189.2,229.264c.914.294,1.938,1.009,2.87.807,1.081-.235,1.563-1.509,1.952-2.708.039-.124.14-.065.179.062.584,1.836.525,3.941-1.15,4.808-1.53.791-3.178-.455-4.149-2.173C188.717,229.743,188.83,229.147,189.2,229.264Z" transform="translate(-185.053 -227.295)" fill="#263238"/>
                </g>
                <path id="Path_10558" data-name="Path 10558" d="M179.151,251.457c.88.566,1.814,1.4,2.943,1.266a8.275,8.275,0,0,0,3.129-1.446.109.109,0,0,1,.164.129,4.2,4.2,0,0,1-3.539,2.46,3.326,3.326,0,0,1-2.963-2.21C178.8,251.489,179.023,251.375,179.151,251.457Z" transform="translate(-161.314 -204.295)" fill="#263238"/>
                <g id="Group_6451" data-name="Group 6451" transform="translate(18.167 2.844)">
                  <path id="Path_10559" data-name="Path 10559" d="M189.01,251.257s1.823,4.341,2.389,6.465c.053.2-7.271,3.858-12.049-.471a.227.227,0,0,1,.238-.378c3.35,1.311,6.588,1.017,9.932.185-.008-.628-3.371-7.329-3.04-7.444,1.135-.408,3.635-.228,5.118-.193-3.535-9.152-8.508-17.662-11.893-26.827a.3.3,0,0,1,.519-.285c5.845,8.551,10.143,18.993,14.037,28.349C194.757,251.821,189.957,251.392,189.01,251.257Z" transform="translate(-179.272 -222.188)" fill="#263238"/>
                </g>
                <g id="Group_6452" data-name="Group 6452" transform="translate(18.576 38.04)">
                  <path id="Path_10560" data-name="Path 10560" d="M188.808,245.782a11.315,11.315,0,0,1-3.128,4.805,5.083,5.083,0,0,1-2.858,1.2c-2.307.179-3.034-1.741-3.224-3.536a12.2,12.2,0,0,1,.065-2.87A14.657,14.657,0,0,0,188.808,245.782Z" transform="translate(-179.541 -245.378)" fill="#263238"/>
                  <path id="Path_10561" data-name="Path 10561" d="M185.66,249.667a5.083,5.083,0,0,1-2.858,1.2c-2.307.179-3.034-1.741-3.224-3.536C181.925,246.775,184.7,247.532,185.66,249.667Z" transform="translate(-179.522 -244.459)" fill="#ff99ba"/>
                </g>
              </g>
              <g id="Group_6454" data-name="Group 6454" transform="translate(0.416)">
                <path id="Path_10562" data-name="Path 10562" d="M149.6,275.293c9.152-6.5,7.721-17.042,7.721-17.042a49.426,49.426,0,0,0,16.974-19.5c-.14.987-1.123,8.106-1.741,11.72,27.735-10.486,32.692-34.027,32.692-34.027,10.962,7.625,13.883,13.233,15.758,15.956,0,0-2.934-17.64-14.09-27.811-13.653-12.453-28.278-7.015-28.278-7.015a41.2,41.2,0,0,0-37.425,19.26C126.2,240.469,149.6,275.293,149.6,275.293Z" transform="translate(-136.189 -196.395)" fill="#1c468a"/>
                <path id="Path_10563" data-name="Path 10563" d="M178.669,236.613a53.8,53.8,0,0,1-13.754,8.033c-.039.017-.061-.046-.023-.064a45.679,45.679,0,0,0,18.786-16.494,43.4,43.4,0,0,0,4.647-9.759c1.185-3.6,2.214-7.818,1.858-11.621a.226.226,0,0,1,.451-.041c.375,4.02.68,7.734-.258,11.714a31.95,31.95,0,0,1-4.678,10.636,36.787,36.787,0,0,1-7.03,7.6" transform="translate(-121.339 -191.18)" fill="#1c468a"/>
              </g>
              <g id="Group_6455" data-name="Group 6455" transform="translate(8.088 39.033)">
                <path id="Path_10564" data-name="Path 10564" d="M178.4,254.237a13.467,13.467,0,1,1,10.289-18.613h0A13.477,13.477,0,0,1,178.4,254.237Zm-3.9-24.833a11.667,11.667,0,1,0,12.533,6.93A11.6,11.6,0,0,0,174.505,229.4Z" transform="translate(-130.059 -219.344)" fill="#e96a1f"/>
                <path id="Path_10565" data-name="Path 10565" d="M197.144,248.53c-5.09.8-10.527-3.691-12.419-10.457a16.082,16.082,0,0,1,.206-9.835,8.39,8.39,0,0,1,13.832-3.867,16.1,16.1,0,0,1,5.273,8.3c2,7.151-.707,14.18-6.028,15.669A7.49,7.49,0,0,1,197.144,248.53Zm-5.235-24.537a5.637,5.637,0,0,0-.668.144,7.182,7.182,0,0,0-4.624,4.728,14.312,14.312,0,0,0-.161,8.722c1.735,6.2,6.682,10.251,11.066,9.02,4.366-1.22,6.511-7.253,4.781-13.448a14.288,14.288,0,0,0-4.659-7.376A7.414,7.414,0,0,0,191.909,223.993Z" transform="translate(-119.079 -222.114)" fill="#e96a1f"/>
                <path id="Path_10566" data-name="Path 10566" d="M180.374,235.641l-1.487-1.017c1.506-2.2,5.433-5.694,9.548-3.19l-.936,1.537C183.817,230.722,180.514,235.441,180.374,235.641Z" transform="translate(-121.756 -217.738)" fill="#e96a1f"/>
                <path id="Path_10567" data-name="Path 10567" d="M143.006,252.295l-1.762-.366c.171-.823,1.774-8.082,5.47-9.792,3.459-1.589,27.31-5.908,28.322-6.091l.319,1.773c-6.839,1.231-25.217,4.716-27.883,5.952C145.029,244.9,143.422,250.306,143.006,252.295Z" transform="translate(-141.244 -214.901)" fill="#e96a1f"/>
              </g>
              <g id="Group_6457" data-name="Group 6457" transform="translate(0 63.159)">
                <g id="Group_6456" data-name="Group 6456">
                  <path id="Path_10568" data-name="Path 10568" d="M155.732,246.392s-12.65-12.045-18.308-7.258,5.836,23.631,13.873,24.9a7.754,7.754,0,0,0,9.357-6.147Z" transform="translate(-135.915 -238.01)" fill="#febbba"/>
                  <path id="Path_10569" data-name="Path 10569" d="M139.2,242.273a.105.105,0,0,0,0,.208c5.67,1.062,9.413,5.362,12.365,10.011-1.952-1.624-4.288-2.257-6.511.123-.117.126.058.313.2.252a4.766,4.766,0,0,1,5.476.59,23,23,0,0,1,3.307,3.662c.34.419,1.135,0,.847-.507-.021-.036-.046-.074-.067-.112C153.595,249.792,146.508,241.495,139.2,242.273Z" transform="translate(-134.26 -235.829)" fill="#1c468a"/>
                </g>
              </g>
            </g>
          </g>
          <path id="Path_10570" data-name="Path 10570" d="M142.4,280.38c1.82,2.325,3.685,4.606,5.66,6.789,1.94,2.208,3.954,4.35,6.074,6.373,4.227,4.011,8.771,7.874,14.08,10.1a15.541,15.541,0,0,0,8.232,1.375,5.039,5.039,0,0,0,3.473-1.674,11.347,11.347,0,0,0,2-3.626,32.875,32.875,0,0,0,1.581-8.542,46.629,46.629,0,0,0-.05-8.8,40.356,40.356,0,0,1,.8,8.838,33.523,33.523,0,0,1-1.217,8.879,11.076,11.076,0,0,1-2.132,4.127,5.885,5.885,0,0,1-1.937,1.519,8.81,8.81,0,0,1-2.313.653,16.865,16.865,0,0,1-9.026-1.349,36.2,36.2,0,0,1-7.695-4.684,58.229,58.229,0,0,1-6.617-5.992A87.934,87.934,0,0,1,142.4,280.38Z" transform="translate(-37.417 -134.578)" fill="#1c468a"/>
        </g>
      </g>
    </g>
    <g id="Screens" transform="translate(127.364 164.57)">
      <g id="Group_6487" data-name="Group 6487" transform="translate(0)">
        <g id="Group_6467" data-name="Group 6467" transform="translate(352.87)">
          <g id="Group_6464" data-name="Group 6464">
            <g id="Group_6462" data-name="Group 6462">
              <rect id="Rectangle_11067" data-name="Rectangle 11067" width="142.116" height="90.657" transform="translate(0.899 0.898)" fill="#ffe5c7"/>
              <path id="Path_10571" data-name="Path 10571" d="M474.231,160.506H330.317V68.053H474.231Zm-142.117-1.8h140.32V69.85H332.114Z" transform="translate(-330.317 -68.053)" fill="#ebebeb"/>
            </g>
            <g id="Group_6463" data-name="Group 6463">
              <rect id="Rectangle_11068" data-name="Rectangle 11068" width="142.116" height="17.144" transform="translate(0.899 0.898)" fill="#e96a1f"/>
              <path id="Path_10572" data-name="Path 10572" d="M474.231,86.994H330.317V68.053H474.231ZM332.114,85.2h140.32V69.85H332.114Z" transform="translate(-330.317 -68.053)" fill="#ebebeb"/>
            </g>
          </g>
          <g id="Group_6465" data-name="Group 6465" transform="translate(8.363 5.28)">
            <path id="Path_10573" data-name="Path 10573" d="M344.457,75.847a4.315,4.315,0,1,1-4.315-4.315A4.315,4.315,0,0,1,344.457,75.847Z" transform="translate(-335.827 -71.532)" fill="#5a96f7"/>
            <path id="Path_10574" data-name="Path 10574" d="M356.066,75.847a4.315,4.315,0,1,1-4.315-4.315A4.315,4.315,0,0,1,356.066,75.847Z" transform="translate(-329.817 -71.532)" fill="#fff"/>
            <path id="Path_10575" data-name="Path 10575" d="M367.676,75.847a4.316,4.316,0,1,1-4.316-4.315A4.315,4.315,0,0,1,367.676,75.847Z" transform="translate(-323.807 -71.532)" fill="#ffe5c7"/>
          </g>
          <g id="Group_6466" data-name="Group 6466" transform="translate(25.426 34.751)">
            <path id="Path_10576" data-name="Path 10576" d="M347.07,108.14A17.532,17.532,0,0,1,364.6,90.95a17.872,17.872,0,0,1,11.031,3.724,2.825,2.825,0,0,1,.477,3.82,2.794,2.794,0,0,1-3.819.525,11.911,11.911,0,0,0-7.689-2.626A12.638,12.638,0,0,0,356,99.832a11.777,11.777,0,0,0-3.486,8.308A11.612,11.612,0,0,0,356,116.449a12.637,12.637,0,0,0,8.595,3.438,12,12,0,0,0,7.689-2.626,2.894,2.894,0,0,1,3.819.525,2.819,2.819,0,0,1-.477,3.82,17.872,17.872,0,0,1-11.031,3.724A17.469,17.469,0,0,1,347.07,108.14Z" transform="translate(-347.07 -90.95)" fill="#fff"/>
            <path id="Path_10577" data-name="Path 10577" d="M371.788,117.021a2.49,2.49,0,0,1,3.486-.334c2.1,1.72,5.729,3.724,9.118,3.676a10.293,10.293,0,0,0,5.969-1.765,4.3,4.3,0,0,0,2.053-3.439,2.717,2.717,0,0,0-.43-1.527,4.491,4.491,0,0,0-1.433-1.433,19.112,19.112,0,0,0-6.541-2.245h-.1a25.845,25.845,0,0,1-6.159-1.862,10.259,10.259,0,0,1-4.439-3.724,7.315,7.315,0,0,1-1.1-3.916,8.823,8.823,0,0,1,3.819-6.971A14.12,14.12,0,0,1,384.3,90.95c4.585,0,7.976,2.245,10.41,3.82a2.459,2.459,0,0,1,.669,3.391,2.412,2.412,0,0,1-3.391.716c-2.436-1.622-4.776-3.055-7.689-3.055a9.127,9.127,0,0,0-5.348,1.622,3.8,3.8,0,0,0-1.814,3.008,2.319,2.319,0,0,0,.335,1.337,4.578,4.578,0,0,0,1.289,1.241,16.4,16.4,0,0,0,5.969,2.1h.094a28.127,28.127,0,0,1,6.591,2.006,11.15,11.15,0,0,1,4.773,3.963,7.728,7.728,0,0,1,1.147,4.058,9.242,9.242,0,0,1-4.107,7.4,14.944,14.944,0,0,1-8.835,2.723c-5.156-.049-9.5-2.627-12.224-4.776A2.541,2.541,0,0,1,371.788,117.021Z" transform="translate(-334.543 -90.95)" fill="#fff"/>
            <path id="Path_10578" data-name="Path 10578" d="M392.457,117.021a2.491,2.491,0,0,1,3.486-.334c2.1,1.72,5.729,3.724,9.118,3.676a10.3,10.3,0,0,0,5.971-1.765,4.3,4.3,0,0,0,2.052-3.439,2.706,2.706,0,0,0-.43-1.527,4.486,4.486,0,0,0-1.431-1.433,19.11,19.11,0,0,0-6.543-2.245h-.1a25.824,25.824,0,0,1-6.159-1.862,10.255,10.255,0,0,1-4.441-3.724,7.314,7.314,0,0,1-1.1-3.916,8.823,8.823,0,0,1,3.819-6.971,14.114,14.114,0,0,1,8.261-2.532c4.583,0,7.976,2.245,10.41,3.82a2.46,2.46,0,0,1,.668,3.391,2.412,2.412,0,0,1-3.391.716c-2.434-1.622-4.775-3.055-7.687-3.055a9.123,9.123,0,0,0-5.348,1.622,3.8,3.8,0,0,0-1.815,3.008,2.32,2.32,0,0,0,.336,1.337,4.586,4.586,0,0,0,1.29,1.241,16.4,16.4,0,0,0,5.968,2.1h.1a28.115,28.115,0,0,1,6.59,2.006,11.141,11.141,0,0,1,4.773,3.963A7.729,7.729,0,0,1,418,115.159a9.242,9.242,0,0,1-4.107,7.4,14.94,14.94,0,0,1-8.835,2.723c-5.156-.049-9.5-2.627-12.224-4.776A2.542,2.542,0,0,1,392.457,117.021Z" transform="translate(-323.843 -90.95)" fill="#fff"/>
          </g>
        </g>
        <g id="Group_6475" data-name="Group 6475" transform="translate(70.5 82.982)">
          <g id="Group_6472" data-name="Group 6472">
            <g id="Group_6470" data-name="Group 6470">
              <rect id="Rectangle_11070" data-name="Rectangle 11070" width="142.116" height="90.656" transform="translate(0.898 0.898)" fill="#ffe5c7"/>
              <path id="Path_10582" data-name="Path 10582" d="M288.179,215.182H144.267V122.729H288.179Zm-142.115-1.8H286.382V124.526H146.064Z" transform="translate(-144.267 -122.729)" fill="#ebebeb"/>
            </g>
            <g id="Group_6471" data-name="Group 6471">
              <rect id="Rectangle_11071" data-name="Rectangle 11071" width="142.116" height="17.144" transform="translate(0.898 0.898)" fill="#e96a1f"/>
              <path id="Path_10583" data-name="Path 10583" d="M288.179,141.67H144.267V122.729H288.179Zm-142.115-1.8H286.382V124.526H146.064Z" transform="translate(-144.267 -122.729)" fill="#ebebeb"/>
            </g>
          </g>
          <g id="Group_6473" data-name="Group 6473" transform="translate(8.361 5.28)">
            <path id="Path_10584" data-name="Path 10584" d="M158.407,130.523a4.316,4.316,0,1,1-4.316-4.315A4.315,4.315,0,0,1,158.407,130.523Z" transform="translate(-149.776 -126.208)" fill="#5a96f7"/>
            <path id="Path_10585" data-name="Path 10585" d="M170.016,130.523a4.315,4.315,0,1,1-4.315-4.315A4.315,4.315,0,0,1,170.016,130.523Z" transform="translate(-143.765 -126.208)" fill="#fff"/>
            <path id="Path_10586" data-name="Path 10586" d="M181.625,130.523a4.315,4.315,0,1,1-4.315-4.315A4.315,4.315,0,0,1,181.625,130.523Z" transform="translate(-137.755 -126.208)" fill="#ffe5c7"/>
          </g>
          <g id="Group_6474" data-name="Group 6474" transform="translate(27.433 34.753)">
            <path id="Path_10587" data-name="Path 10587" d="M162.342,162.817a17.528,17.528,0,0,1,17.523-17.19,17.863,17.863,0,0,1,11.031,3.724,2.742,2.742,0,0,1-3.344,4.345,11.9,11.9,0,0,0-7.687-2.627,12.638,12.638,0,0,0-8.595,3.438,11.783,11.783,0,0,0-3.486,8.309,11.609,11.609,0,0,0,3.486,8.308,12.632,12.632,0,0,0,8.595,3.439,11.991,11.991,0,0,0,7.687-2.627,2.9,2.9,0,0,1,3.82.525,2.817,2.817,0,0,1-.477,3.82,17.862,17.862,0,0,1-11.031,3.724A17.465,17.465,0,0,1,162.342,162.817Z" transform="translate(-162.342 -145.627)" fill="#fff"/>
            <path id="Path_10588" data-name="Path 10588" d="M195.719,163.919h-6.78a2.619,2.619,0,0,1-2.626-2.626,2.651,2.651,0,0,1,2.626-2.627h6.78v-6.637a2.691,2.691,0,0,1,2.723-2.721,2.719,2.719,0,0,1,2.721,2.721v6.637h6.781a2.65,2.65,0,0,1,2.626,2.627,2.618,2.618,0,0,1-2.626,2.626h-6.781v6.637a2.72,2.72,0,0,1-2.721,2.723,2.692,2.692,0,0,1-2.723-2.723Z" transform="translate(-149.931 -143.721)" fill="#fff"/>
            <path id="Path_10589" data-name="Path 10589" d="M215.226,163.919h-6.781a2.618,2.618,0,0,1-2.626-2.626,2.65,2.65,0,0,1,2.626-2.627h6.781v-6.637a2.689,2.689,0,0,1,2.721-2.721,2.721,2.721,0,0,1,2.723,2.721v6.637h6.78a2.651,2.651,0,0,1,2.626,2.627,2.619,2.619,0,0,1-2.626,2.626h-6.78v6.637a2.722,2.722,0,0,1-2.723,2.723,2.691,2.691,0,0,1-2.721-2.723Z" transform="translate(-139.834 -143.721)" fill="#fff"/>
          </g>
        </g>
        <g id="Group_6482" data-name="Group 6482" transform="translate(239.095 103.42)" opacity="0.6">
          <g id="Group_6478" data-name="Group 6478" transform="translate(0)">
            <g id="Group_6476" data-name="Group 6476">
              <rect id="Rectangle_11072" data-name="Rectangle 11072" width="237.01" height="166.044" transform="translate(0.897 0.898)" fill="#d0e2ff"/>
              <path id="Path_10590" data-name="Path 10590" d="M494.158,304.036H255.352V136.2H494.158Zm-237.01-1.8H492.361V137.99H257.148Z" transform="translate(-255.352 -136.195)" fill="#ebebeb"/>
            </g>
            <g id="Group_6477" data-name="Group 6477">
              <rect id="Rectangle_11073" data-name="Rectangle 11073" width="237.01" height="17.144" transform="translate(0.897 0.898)" fill="#5a96f7"/>
              <path id="Path_10591" data-name="Path 10591" d="M494.158,155.135H255.352V136.2H494.158Zm-237.01-1.8H492.361V137.99H257.148Z" transform="translate(-255.352 -136.195)" fill="#ebebeb"/>
            </g>
          </g>
          <g id="Group_6479" data-name="Group 6479" transform="translate(8.361 5.279)">
            <path id="Path_10592" data-name="Path 10592" d="M269.491,143.988a4.315,4.315,0,1,1-4.315-4.315A4.314,4.314,0,0,1,269.491,143.988Z" transform="translate(-260.861 -139.673)" fill="#e96a1f"/>
            <path id="Path_10593" data-name="Path 10593" d="M281.1,143.988a4.315,4.315,0,1,1-4.315-4.315A4.314,4.314,0,0,1,281.1,143.988Z" transform="translate(-254.851 -139.673)" fill="#ebebeb"/>
            <path id="Path_10594" data-name="Path 10594" d="M292.709,143.988a4.315,4.315,0,1,1-4.315-4.315A4.314,4.314,0,0,1,292.709,143.988Z" transform="translate(-248.841 -139.673)" fill="#d7e2f4"/>
          </g>
          <g id="Group_6481" data-name="Group 6481" transform="translate(19.289 35.957)">
            <rect id="Rectangle_11074" data-name="Rectangle 11074" width="9.166" height="3.348" transform="translate(0 16.19)" fill="#ebebeb"/>
            <rect id="Rectangle_11075" data-name="Rectangle 11075" width="105.143" height="3.348" transform="translate(15.846 16.19)" fill="#ebebeb"/>
            <rect id="Rectangle_11076" data-name="Rectangle 11076" width="17.411" height="3.348" transform="translate(126.621 16.19)" fill="#e96a1f"/>
            <rect id="Rectangle_11077" data-name="Rectangle 11077" width="30.097" height="3.348" transform="translate(147.817 16.19)" fill="#1c468a"/>
            <rect id="Rectangle_11078" data-name="Rectangle 11078" width="9.166" height="3.348" transform="translate(9.166 25.151)" fill="#ebebeb"/>
            <rect id="Rectangle_11079" data-name="Rectangle 11079" width="69.001" height="3.348" transform="translate(24.783 25.151)" fill="#1c468a"/>
            <rect id="Rectangle_11080" data-name="Rectangle 11080" width="65.907" height="3.348" transform="translate(15.846 52.033)" fill="#1c468a"/>
            <rect id="Rectangle_11081" data-name="Rectangle 11081" width="46.236" height="3.348" transform="translate(24.783 34.111)" fill="#e96a1f"/>
            <rect id="Rectangle_11082" data-name="Rectangle 11082" width="17.635" height="3.348" transform="translate(138.264 43.072)" fill="#1c468a"/>
            <rect id="Rectangle_11083" data-name="Rectangle 11083" width="73.835" height="3.348" transform="translate(76.148 34.111)" fill="#1c468a"/>
            <rect id="Rectangle_11084" data-name="Rectangle 11084" width="88.135" height="3.348" transform="translate(15.846 60.993)" fill="#e96a1f"/>
            <rect id="Rectangle_11085" data-name="Rectangle 11085" width="47.764" height="3.348" transform="translate(145.875 25.151)" fill="#e96a1f"/>
            <rect id="Rectangle_11086" data-name="Rectangle 11086" width="43.975" height="3.348" transform="translate(98.115 25.151)" fill="#ebebeb"/>
            <rect id="Rectangle_11087" data-name="Rectangle 11087" width="29.674" height="3.348" transform="translate(153.454 34.111)" fill="#ebebeb"/>
            <rect id="Rectangle_11088" data-name="Rectangle 11088" width="9.166" height="3.348" transform="translate(9.166 34.111)" fill="#ebebeb"/>
            <rect id="Rectangle_11089" data-name="Rectangle 11089" width="9.166" height="3.348" transform="translate(0 43.072)" fill="#1c468a"/>
            <rect id="Rectangle_11090" data-name="Rectangle 11090" width="54.172" height="3.348" transform="translate(15.846 43.072)" fill="#ebebeb"/>
            <rect id="Rectangle_11091" data-name="Rectangle 11091" width="58.549" height="3.348" transform="translate(85.482 52.033)" fill="#ebebeb"/>
            <rect id="Rectangle_11092" data-name="Rectangle 11092" width="37.253" height="3.348" transform="translate(147.817 52.033)" fill="#e96a1f"/>
            <rect id="Rectangle_11093" data-name="Rectangle 11093" width="58.478" height="3.348" transform="translate(75.525 43.072)" fill="#e96a1f"/>
            <rect id="Rectangle_11094" data-name="Rectangle 11094" width="9.166" height="3.348" transform="translate(0 52.033)" fill="#ebebeb"/>
            <rect id="Rectangle_11095" data-name="Rectangle 11095" width="9.166" height="3.348" transform="translate(0 60.993)" fill="#ebebeb"/>
            <g id="Group_6480" data-name="Group 6480" transform="translate(0.755)">
              <path id="Path_10595" data-name="Path 10595" d="M273.466,167.259a.793.793,0,0,1-.552,1.36.846.846,0,0,1-.58-.226l-3.535-3.586c-.038-.012-.05-.038-.064-.076a.2.2,0,0,0-.038-.026.318.318,0,0,1-.036-.1.065.065,0,0,1-.039-.05c-.012-.026-.012-.062-.024-.076,0-.036-.026-.049-.026-.062v-.088c0-.026-.012-.038-.012-.076,0-.012.012-.05.012-.062V164.1c0-.026.026-.038.026-.052.012-.036.012-.062.024-.1,0-.012.012-.012.012-.024.027-.038.039-.09.064-.114a.024.024,0,0,1,.026-.024.22.22,0,0,1,.076-.088l3.535-3.586a.821.821,0,0,1,1.132,0,.8.8,0,0,1,0,1.132l-2.981,3.007Z" transform="translate(-268.559 -159.887)" fill="#e96a1f"/>
              <path id="Path_10596" data-name="Path 10596" d="M273.922,167.656,277,160.319a.7.7,0,0,1,.918-.363.676.676,0,0,1,.352.892l-3.082,7.347a.7.7,0,0,1-.642.416.6.6,0,0,1-.25-.05A.681.681,0,0,1,273.922,167.656Z" transform="translate(-265.811 -159.88)" fill="#e96a1f"/>
              <path id="Path_10597" data-name="Path 10597" d="M282.489,164.7s0,.014-.012.014a.618.618,0,0,1-.09.088l-3.535,3.586a.82.82,0,0,1-1.131,0,.794.794,0,0,1,0-1.134l2.979-3.007-2.979-3.007a.793.793,0,0,1,0-1.132.819.819,0,0,1,1.131,0l3.535,3.586a.492.492,0,0,1,.09.088c.012,0,.012.024.012.024.024.05.05.076.064.114,0,.012.012.012.012.024a.6.6,0,0,0,.036.114c0,.012.012.012.012.038v.088c0,.012.014.05.014.062s-.014.05-.014.062v.1c0,.014-.012.014-.012.026a1.113,1.113,0,0,0-.036.112c0,.012-.012.012-.012.038S282.514,164.656,282.489,164.7Z" transform="translate(-263.938 -159.887)" fill="#e96a1f"/>
            </g>
          </g>
        </g>
        <g id="Group_6484" data-name="Group 6484" transform="translate(0 50.464)">
          <rect id="Rectangle_11096" data-name="Rectangle 11096" width="96.817" height="35.844" fill="#b5d2ff"/>
          <g id="Group_6483" data-name="Group 6483" transform="translate(13.97 7.98)">
            <path id="Path_10598" data-name="Path 10598" d="M107.02,123.94v-15.9a1.462,1.462,0,0,1,1.483-1.481,1.484,1.484,0,0,1,1.509,1.481v6.467h6.978v-6.467a1.462,1.462,0,0,1,1.483-1.481,1.484,1.484,0,0,1,1.509,1.481v15.9a1.484,1.484,0,0,1-1.509,1.481,1.462,1.462,0,0,1-1.483-1.481v-6.467h-6.978v6.467a1.484,1.484,0,0,1-1.509,1.481A1.462,1.462,0,0,1,107.02,123.94Z" transform="translate(-107.02 -106.561)" fill="#fff"/>
            <path id="Path_10599" data-name="Path 10599" d="M131.637,109.552h-4.284V123.94a1.481,1.481,0,0,1-2.963,0V109.552h-4.259a1.5,1.5,0,0,1-1.481-1.51,1.46,1.46,0,0,1,1.481-1.481h11.506a1.477,1.477,0,0,1,1.481,1.481A1.519,1.519,0,0,1,131.637,109.552Z" transform="translate(-100.999 -106.561)" fill="#fff"/>
            <path id="Path_10600" data-name="Path 10600" d="M147.335,108.042v15.9a1.52,1.52,0,0,1-1.509,1.481,1.477,1.477,0,0,1-1.483-1.481V112.6l-3.881,5.388a1.473,1.473,0,0,1-1.213.621H139.2a1.525,1.525,0,0,1-1.24-.621L134.1,112.6V123.94a1.5,1.5,0,0,1-2.991,0v-15.9a1.5,1.5,0,0,1,1.483-1.481h.08a1.462,1.462,0,0,1,1.187.619l5.362,7.437,5.361-7.437a1.474,1.474,0,0,1,1.213-.619h.029A1.539,1.539,0,0,1,147.335,108.042Z" transform="translate(-94.547 -106.561)" fill="#fff"/>
            <path id="Path_10601" data-name="Path 10601" d="M146.1,123.94v-15.9a1.479,1.479,0,0,1,1.483-1.481,1.5,1.5,0,0,1,1.509,1.481V122.43h7.3a1.5,1.5,0,0,1,0,2.991H147.58A1.479,1.479,0,0,1,146.1,123.94Z" transform="translate(-86.789 -106.561)" fill="#fff"/>
          </g>
        </g>
        <g id="Group_6486" data-name="Group 6486" transform="translate(197.38 243.486)">
          <rect id="Rectangle_11097" data-name="Rectangle 11097" width="54.052" height="35.844" fill="#5a96f7"/>
          <g id="Group_6485" data-name="Group 6485" transform="translate(11.861 7.979)">
            <path id="Path_10602" data-name="Path 10602" d="M238.5,246.975a3.6,3.6,0,0,0,7.019-1.094V235.52a1.449,1.449,0,0,1,2.9,0v10.361a6.486,6.486,0,0,1-12.658,1.982,1.4,1.4,0,0,1,.914-1.8A1.423,1.423,0,0,1,238.5,246.975Z" transform="translate(-235.682 -233.562)" fill="#fff"/>
            <path id="Path_10603" data-name="Path 10603" d="M246.563,247.99a1.361,1.361,0,0,1,1.9-.184,8.508,8.508,0,0,0,4.986,2.009,5.635,5.635,0,0,0,3.262-.964,2.351,2.351,0,0,0,1.122-1.88,1.492,1.492,0,0,0-.234-.835,2.458,2.458,0,0,0-.783-.783,10.466,10.466,0,0,0-3.576-1.226h-.052a14.132,14.132,0,0,1-3.368-1.018,5.6,5.6,0,0,1-2.425-2.035,4,4,0,0,1-.6-2.14,4.821,4.821,0,0,1,2.088-3.81,7.724,7.724,0,0,1,4.515-1.384,10.218,10.218,0,0,1,5.688,2.088,1.345,1.345,0,0,1,.366,1.853,1.319,1.319,0,0,1-1.853.392,7.57,7.57,0,0,0-4.2-1.671,4.992,4.992,0,0,0-2.925.888,2.076,2.076,0,0,0-.991,1.644,1.258,1.258,0,0,0,.184.732,2.517,2.517,0,0,0,.7.678,9.01,9.01,0,0,0,3.262,1.147h.053a15.4,15.4,0,0,1,3.6,1.1,6.094,6.094,0,0,1,2.611,2.164,4.235,4.235,0,0,1,.627,2.219,5.048,5.048,0,0,1-2.245,4.045,8.152,8.152,0,0,1-4.828,1.487,11.246,11.246,0,0,1-6.681-2.609A1.389,1.389,0,0,1,246.563,247.99Z" transform="translate(-230.196 -233.74)" fill="#fff"/>
          </g>
        </g>
      </g>
    </g>
    <g id="Coffee" transform="translate(82.751 551.664)">
      <g id="Group_6493" data-name="Group 6493">
        <g id="Group_6488" data-name="Group 6488" transform="translate(26.773)">
          <path id="Path_10604" data-name="Path 10604" d="M113.918,434.032s33.188-15.289,33.188-35.783-43.041-33.686-43.041-49.705,18.77-25.44,18.77-25.44-29.645,10.129-29.645,30.388,28.372,33.986,31.086,46.878C128.045,418.272,113.918,434.032,113.918,434.032Z" transform="translate(-82.371 -323.104)" fill="#dbdbdb" opacity="0.6"/>
          <path id="Path_10605" data-name="Path 10605" d="M119.249,425.944s-33.188-12.02-33.188-28.134S129.1,371.324,129.1,358.729s-18.77-20-18.77-20,29.647,7.963,29.647,23.892S107.4,389.5,105.067,402.441C102.782,415.13,119.249,425.944,119.249,425.944Z" transform="translate(-86.061 -315.016)" fill="#dbdbdb" opacity="0.6"/>
        </g>
        <g id="Group_6489" data-name="Group 6489" transform="translate(42.887 162.46)">
          <rect id="Rectangle_11098" data-name="Rectangle 11098" width="31.569" height="4.927" fill="#1c468a"/>
          <rect id="Rectangle_11099" data-name="Rectangle 11099" width="31.569" height="3.25" fill="#263238"/>
        </g>
        <g id="Group_6490" data-name="Group 6490" transform="translate(0 112.088)">
          <path id="Path_10606" data-name="Path 10606" d="M73.836,434.085c3.734,5.245,10.342,9,17.777,7.6a17.973,17.973,0,0,0,3.2-.92,22.629,22.629,0,0,0,4.464-2.346l-4.011-5.946a14.4,14.4,0,0,1-2.368,1.345c-7.517,3.407-12.277-2.519-13.212-3.873-4.329-6.08-5.878-19.972-1.493-25.314.29-.395,1.557-1.021,6.64.061.939.211,2,.448,3.208.779a12.748,12.748,0,0,0,2.885.622l.129-3.57.348-3.562c-.326-.061-.839-.206-1.507-.4a45.96,45.96,0,0,0-7.177-1.489c-3.74-.389-7.663.061-10.068,3.014C65.528,408.816,68.418,426.461,73.836,434.085Z" transform="translate(-68.421 -396.957)" fill="#1c468a"/>
          <path id="Path_10607" data-name="Path 10607" d="M86.917,420.359a14.4,14.4,0,0,1-2.368,1.345l1.915,6.948a22.631,22.631,0,0,0,4.464-2.346Z" transform="translate(-60.071 -384.842)" fill="#263238"/>
          <path id="Path_10608" data-name="Path 10608" d="M77.842,397.036l2.114,7.616c.939.211,2,.448,3.208.779a12.744,12.744,0,0,0,2.885.622l.129-3.57.348-3.562c-.326-.061-.839-.206-1.507-.4A45.964,45.964,0,0,0,77.842,397.036Z" transform="translate(-63.543 -396.917)" fill="#263238"/>
        </g>
        <g id="Group_6492" data-name="Group 6492" transform="translate(16.68 102.901)">
          <path id="Path_10609" data-name="Path 10609" d="M163.394,390.9s-3.788,32.171-10.33,45.721c-6.541,13.529-15.67,15.045-21.342,15.045H111.083c-5.672,0-14.8-1.516-21.342-15.045C83.2,423.075,79.411,390.9,79.411,390.9Z" transform="translate(-79.411 -390.904)" fill="#e96a1f"/>
          <g id="Group_6491" data-name="Group 6491" transform="translate(2.867 18.586)">
            <path id="Path_10610" data-name="Path 10610" d="M157.375,408.51c-.653,2.96-1.366,5.889-2.155,8.651H84.525c-.789-2.762-1.5-5.691-2.155-8.651Z" transform="translate(-80.746 -400.375)" fill="#1c468a"/>
            <path id="Path_10611" data-name="Path 10611" d="M153.182,416.37c-.486,1.533-.986,2.99-1.518,4.326H85.948c-.531-1.336-1.032-2.793-1.518-4.326Z" transform="translate(-79.68 -396.306)" fill="#1c468a"/>
            <path id="Path_10612" data-name="Path 10612" d="M159.553,403.15c-.258,1.411-.531,2.853-.835,4.325H82.135c-.3-1.472-.577-2.914-.835-4.325Z" transform="translate(-81.3 -403.15)" fill="#1c468a"/>
          </g>
        </g>
      </g>
    </g>
  </g>
</svg>
